<svg width="67" height="67" viewBox="0 0 67 67" fill="none" xmlns="http://www.w3.org/2000/svg">
<g filter="url(#filter0_diii_2209_4205)">
<path d="M5.5 22.7C5.5 15.9794 5.5 12.6191 6.80792 10.0521C7.9584 7.79417 9.79417 5.9584 12.0521 4.80792C14.6191 3.5 17.9794 3.5 24.7 3.5L42.3 3.5C49.0206 3.5 52.381 3.5 54.9479 4.80792C57.2058 5.9584 59.0416 7.79417 60.1921 10.0521C61.5 12.6191 61.5 15.9794 61.5 22.7V40.3C61.5 47.0206 61.5 50.381 60.1921 52.9479C59.0416 55.2058 57.2058 57.0416 54.9479 58.1921C52.381 59.5 49.0206 59.5 42.3 59.5H24.7C17.9794 59.5 14.6191 59.5 12.0521 58.1921C9.79417 57.0416 7.9584 55.2058 6.80792 52.9479C5.5 50.381 5.5 47.0206 5.5 40.3V22.7Z" fill="url(#paint0_linear_2209_4205)" shape-rendering="crispEdges"/>
<path d="M42.2998 3.25C45.656 3.25 48.1886 3.24955 50.2021 3.41406C52.2185 3.57882 53.737 3.91007 55.0615 4.58496C57.3665 5.75941 59.2406 7.63351 60.415 9.93848C61.0899 11.263 61.4212 12.7815 61.5859 14.7979C61.7505 16.8114 61.75 19.344 61.75 22.7002V40.2998C61.75 43.656 61.7505 46.1886 61.5859 48.2021C61.4212 50.2185 61.0899 51.737 60.415 53.0615C59.2406 55.3665 57.3665 57.2406 55.0615 58.415C53.737 59.0899 52.2185 59.4212 50.2021 59.5859C48.1886 59.7505 45.656 59.75 42.2998 59.75H24.7002C21.344 59.75 18.8114 59.7505 16.7979 59.5859C14.7815 59.4212 13.263 59.0899 11.9385 58.415C9.63351 57.2406 7.75941 55.3665 6.58496 53.0615C5.91007 51.737 5.57882 50.2185 5.41406 48.2021C5.24955 46.1886 5.25 43.656 5.25 40.2998V22.7002C5.25 19.344 5.24955 16.8114 5.41406 14.7979C5.57882 12.7815 5.91007 11.263 6.58496 9.93848C7.75941 7.63351 9.63351 5.75941 11.9385 4.58496C13.263 3.91007 14.7815 3.57882 16.7979 3.41406C18.8114 3.24955 21.344 3.25 24.7002 3.25L42.2998 3.25Z" stroke="#D2CEFF" stroke-width="0.5" shape-rendering="crispEdges"/>
<g filter="url(#filter1_diii_2209_4205)">
<g filter="url(#filter2_dii_2209_4205)">
<path fill-rule="evenodd" clip-rule="evenodd" d="M36.3841 39.8656L36.9451 40.8382C37.3682 41.5717 37.4825 42.4444 37.2622 43.262C37.0433 44.0803 36.5075 44.7786 35.7738 45.2018L34.6779 45.8338C33.9442 46.257 33.0715 46.3711 32.2536 46.1508C31.4355 45.9321 30.7373 45.3962 30.3143 44.6627L29.3789 43.041C29.6736 42.9143 29.9629 42.769 30.2468 42.6053L33.6332 40.6521L36.3841 39.8656ZM31.7536 39.2766L29.1823 40.7596C26.2274 42.4639 22.4509 41.4501 20.7461 38.4945L20.5346 38.1277C18.8299 35.1721 19.8428 31.3944 22.7977 29.6901L24.9798 28.4315L31.7536 39.2766ZM26.7629 27.2661L36.9848 17.3912C37.6926 16.7076 38.6757 16.3886 39.6492 16.5249C40.6234 16.6622 41.48 17.2408 41.9717 18.0933L48.8224 29.971C49.3141 30.8235 49.386 31.8547 49.0171 32.7668C48.6476 33.6777 47.8792 34.3689 46.9329 34.6392L33.7244 38.4109L26.7629 27.2661Z" fill="url(#paint1_linear_2209_4205)"/>
</g>
</g>
</g>
<defs>
<filter id="filter0_diii_2209_4205" x="0" y="0" width="67" height="67" filterUnits="userSpaceOnUse" color-interpolation-filters="sRGB">
<feFlood flood-opacity="0" result="BackgroundImageFix"/>
<feColorMatrix in="SourceAlpha" type="matrix" values="0 0 0 0 0 0 0 0 0 0 0 0 0 0 0 0 0 0 127 0" result="hardAlpha"/>
<feOffset dy="2"/>
<feGaussianBlur stdDeviation="2.5"/>
<feComposite in2="hardAlpha" operator="out"/>
<feColorMatrix type="matrix" values="0 0 0 0 0.290196 0 0 0 0 0.227451 0 0 0 0 1 0 0 0 0.25 0"/>
<feBlend mode="normal" in2="BackgroundImageFix" result="effect1_dropShadow_2209_4205"/>
<feBlend mode="normal" in="SourceGraphic" in2="effect1_dropShadow_2209_4205" result="shape"/>
<feColorMatrix in="SourceAlpha" type="matrix" values="0 0 0 0 0 0 0 0 0 0 0 0 0 0 0 0 0 0 127 0" result="hardAlpha"/>
<feOffset dy="3"/>
<feGaussianBlur stdDeviation="2"/>
<feComposite in2="hardAlpha" operator="arithmetic" k2="-1" k3="1"/>
<feColorMatrix type="matrix" values="0 0 0 0 0.874597 0 0 0 0 0.932332 0 0 0 0 1 0 0 0 0.1 0"/>
<feBlend mode="normal" in2="shape" result="effect2_innerShadow_2209_4205"/>
<feColorMatrix in="SourceAlpha" type="matrix" values="0 0 0 0 0 0 0 0 0 0 0 0 0 0 0 0 0 0 127 0" result="hardAlpha"/>
<feOffset dy="1"/>
<feGaussianBlur stdDeviation="0.5"/>
<feComposite in2="hardAlpha" operator="arithmetic" k2="-1" k3="1"/>
<feColorMatrix type="matrix" values="0 0 0 0 1 0 0 0 0 1 0 0 0 0 1 0 0 0 0.1 0"/>
<feBlend mode="normal" in2="effect2_innerShadow_2209_4205" result="effect3_innerShadow_2209_4205"/>
<feColorMatrix in="SourceAlpha" type="matrix" values="0 0 0 0 0 0 0 0 0 0 0 0 0 0 0 0 0 0 127 0" result="hardAlpha"/>
<feOffset dy="-2"/>
<feGaussianBlur stdDeviation="1"/>
<feComposite in2="hardAlpha" operator="arithmetic" k2="-1" k3="1"/>
<feColorMatrix type="matrix" values="0 0 0 0 0 0 0 0 0 0.259991 0 0 0 0 0.537912 0 0 0 0.15 0"/>
<feBlend mode="normal" in2="effect3_innerShadow_2209_4205" result="effect4_innerShadow_2209_4205"/>
</filter>
<filter id="filter1_diii_2209_4205" x="14.7069" y="13.494" width="39.5433" height="39.7666" filterUnits="userSpaceOnUse" color-interpolation-filters="sRGB">
<feFlood flood-opacity="0" result="BackgroundImageFix"/>
<feColorMatrix in="SourceAlpha" type="matrix" values="0 0 0 0 0 0 0 0 0 0 0 0 0 0 0 0 0 0 127 0" result="hardAlpha"/>
<feOffset dy="2"/>
<feGaussianBlur stdDeviation="2.5"/>
<feComposite in2="hardAlpha" operator="out"/>
<feColorMatrix type="matrix" values="0 0 0 0 0.290196 0 0 0 0 0.227451 0 0 0 0 1 0 0 0 0.25 0"/>
<feBlend mode="normal" in2="BackgroundImageFix" result="effect1_dropShadow_2209_4205"/>
<feBlend mode="normal" in="SourceGraphic" in2="effect1_dropShadow_2209_4205" result="shape"/>
<feColorMatrix in="SourceAlpha" type="matrix" values="0 0 0 0 0 0 0 0 0 0 0 0 0 0 0 0 0 0 127 0" result="hardAlpha"/>
<feOffset dy="3"/>
<feGaussianBlur stdDeviation="2"/>
<feComposite in2="hardAlpha" operator="arithmetic" k2="-1" k3="1"/>
<feColorMatrix type="matrix" values="0 0 0 0 0.874597 0 0 0 0 0.932332 0 0 0 0 1 0 0 0 0.1 0"/>
<feBlend mode="normal" in2="shape" result="effect2_innerShadow_2209_4205"/>
<feColorMatrix in="SourceAlpha" type="matrix" values="0 0 0 0 0 0 0 0 0 0 0 0 0 0 0 0 0 0 127 0" result="hardAlpha"/>
<feOffset dy="1"/>
<feGaussianBlur stdDeviation="0.5"/>
<feComposite in2="hardAlpha" operator="arithmetic" k2="-1" k3="1"/>
<feColorMatrix type="matrix" values="0 0 0 0 1 0 0 0 0 1 0 0 0 0 1 0 0 0 0.1 0"/>
<feBlend mode="normal" in2="effect2_innerShadow_2209_4205" result="effect3_innerShadow_2209_4205"/>
<feColorMatrix in="SourceAlpha" type="matrix" values="0 0 0 0 0 0 0 0 0 0 0 0 0 0 0 0 0 0 127 0" result="hardAlpha"/>
<feOffset dy="-2"/>
<feGaussianBlur stdDeviation="1"/>
<feComposite in2="hardAlpha" operator="arithmetic" k2="-1" k3="1"/>
<feColorMatrix type="matrix" values="0 0 0 0 0 0 0 0 0 0.259991 0 0 0 0 0.537912 0 0 0 0.15 0"/>
<feBlend mode="normal" in2="effect3_innerShadow_2209_4205" result="effect4_innerShadow_2209_4205"/>
</filter>
<filter id="filter2_dii_2209_4205" x="13.7069" y="13.494" width="41.5433" height="41.7666" filterUnits="userSpaceOnUse" color-interpolation-filters="sRGB">
<feFlood flood-opacity="0" result="BackgroundImageFix"/>
<feColorMatrix in="SourceAlpha" type="matrix" values="0 0 0 0 0 0 0 0 0 0 0 0 0 0 0 0 0 0 127 0" result="hardAlpha"/>
<feOffset dy="3"/>
<feGaussianBlur stdDeviation="3"/>
<feComposite in2="hardAlpha" operator="out"/>
<feColorMatrix type="matrix" values="0 0 0 0 0.027451 0 0 0 0 0 0 0 0 0 0.431373 0 0 0 0.03 0"/>
<feBlend mode="normal" in2="BackgroundImageFix" result="effect1_dropShadow_2209_4205"/>
<feBlend mode="normal" in="SourceGraphic" in2="effect1_dropShadow_2209_4205" result="shape"/>
<feColorMatrix in="SourceAlpha" type="matrix" values="0 0 0 0 0 0 0 0 0 0 0 0 0 0 0 0 0 0 127 0" result="hardAlpha"/>
<feOffset dy="4"/>
<feGaussianBlur stdDeviation="3"/>
<feComposite in2="hardAlpha" operator="arithmetic" k2="-1" k3="1"/>
<feColorMatrix type="matrix" values="0 0 0 0 1 0 0 0 0 1 0 0 0 0 1 0 0 0 0.4 0"/>
<feBlend mode="normal" in2="shape" result="effect2_innerShadow_2209_4205"/>
<feColorMatrix in="SourceAlpha" type="matrix" values="0 0 0 0 0 0 0 0 0 0 0 0 0 0 0 0 0 0 127 0" result="hardAlpha"/>
<feOffset dy="-2"/>
<feGaussianBlur stdDeviation="1"/>
<feComposite in2="hardAlpha" operator="arithmetic" k2="-1" k3="1"/>
<feColorMatrix type="matrix" values="0 0 0 0 0.105882 0 0 0 0 0.137255 0 0 0 0 0.333333 0 0 0 0.07 0"/>
<feBlend mode="normal" in2="effect2_innerShadow_2209_4205" result="effect3_innerShadow_2209_4205"/>
</filter>
<linearGradient id="paint0_linear_2209_4205" x1="35.4639" y1="-11.0702" x2="57.6455" y2="51.2655" gradientUnits="userSpaceOnUse">
<stop stop-color="#8C82FF"/>
<stop offset="1" stop-color="#4A3AFF"/>
</linearGradient>
<linearGradient id="paint1_linear_2209_4205" x1="13.722" y1="-3.31096" x2="52.9457" y2="25.0226" gradientUnits="userSpaceOnUse">
<stop stop-color="white"/>
<stop offset="1" stop-color="#FBFBFE"/>
</linearGradient>
</defs>
</svg>
