<svg width="199" height="32" viewBox="0 0 199 32" fill="none" xmlns="http://www.w3.org/2000/svg">
<path fill-rule="evenodd" clip-rule="evenodd" d="M18.7163 11.4099C20.4717 11.4099 21.8948 9.98674 21.8948 8.23125C21.8948 6.47575 20.4717 5.05264 18.7163 5.05264C16.9608 5.05264 15.5377 6.47575 15.5377 8.23125C15.5377 9.98674 16.9608 11.4099 18.7163 11.4099Z" fill="#8055FA"/>
<path fill-rule="evenodd" clip-rule="evenodd" d="M18.7161 19.0363C20.4716 19.0363 21.8947 17.6134 21.8947 15.8581C21.8947 14.1029 20.4716 12.68 18.7161 12.68C16.9607 12.68 15.5376 14.1029 15.5376 15.8581C15.5376 17.6134 16.9607 19.0363 18.7161 19.0363Z" fill="#7550FB"/>
<path fill-rule="evenodd" clip-rule="evenodd" d="M18.7161 26.9473C20.4716 26.9473 21.8947 25.5242 21.8947 23.7687C21.8947 22.0132 20.4716 20.5901 18.7161 20.5901C16.9607 20.5901 15.5376 22.0132 15.5376 23.7687C15.5376 25.5242 16.9607 26.9473 18.7161 26.9473Z" fill="#6A4AFC"/>
<path fill-rule="evenodd" clip-rule="evenodd" d="M10.806 19.0363C12.5612 19.0363 13.9841 17.6133 13.9841 15.8581C13.9841 14.1028 12.5612 12.6799 10.806 12.6799C9.05076 12.6799 7.62787 14.1028 7.62787 15.8581C7.62787 17.6133 9.05076 19.0363 10.806 19.0363Z" fill="#6045FD"/>
<path fill-rule="evenodd" clip-rule="evenodd" d="M10.8054 26.9473C12.5607 26.9473 13.9835 25.5242 13.9835 23.7687C13.9835 22.0132 12.5607 20.5901 10.8054 20.5901C9.05021 20.5901 7.62732 22.0132 7.62732 23.7687C7.62732 25.5242 9.05021 26.9473 10.8054 26.9473Z" fill="#553FFE"/>
<path fill-rule="evenodd" clip-rule="evenodd" d="M3.17854 26.9473C4.934 26.9473 6.35709 25.5242 6.35709 23.7687C6.35709 22.0132 4.934 20.5901 3.17854 20.5901C1.42308 20.5901 0 22.0132 0 23.7687C0 25.5242 1.42308 26.9473 3.17854 26.9473Z" fill="#4A3AFF"/>
<path d="M30.122 25V7.85167H33.689V14.299H33.7979C33.9542 13.953 34.1802 13.6013 34.4761 13.244C34.7775 12.8812 35.1683 12.5797 35.6483 12.3397C36.134 12.0941 36.7369 11.9713 37.457 11.9713C38.3947 11.9713 39.26 12.2169 40.0526 12.7081C40.8453 13.1938 41.4789 13.9278 41.9534 14.9103C42.4278 15.8872 42.6651 17.1124 42.6651 18.5861C42.6651 20.0207 42.4334 21.2321 41.9701 22.2201C41.5124 23.2026 40.8872 23.9478 40.0945 24.4557C39.3074 24.9581 38.4255 25.2093 37.4486 25.2093C36.7564 25.2093 36.1675 25.0949 35.6818 24.866C35.2018 24.6372 34.8082 24.3497 34.5012 24.0036C34.1942 23.6519 33.9597 23.2974 33.7979 22.9402H33.6388V25H30.122ZM33.6136 18.5694C33.6136 19.3341 33.7197 20.0012 33.9318 20.5706C34.144 21.14 34.451 21.5837 34.8529 21.9019C35.2548 22.2145 35.7432 22.3708 36.3182 22.3708C36.8987 22.3708 37.39 22.2117 37.7919 21.8935C38.1938 21.5698 38.498 21.1232 38.7046 20.5538C38.9167 19.9789 39.0227 19.3174 39.0227 18.5694C39.0227 17.827 38.9195 17.1738 38.7129 16.61C38.5064 16.0463 38.2022 15.6053 37.8003 15.2871C37.3983 14.9689 36.9043 14.8098 36.3182 14.8098C35.7377 14.8098 35.2464 14.9633 34.8445 15.2703C34.4482 15.5774 34.144 16.0128 33.9318 16.5766C33.7197 17.1404 33.6136 17.8046 33.6136 18.5694ZM45.281 25V12.1388H48.7391V14.3828H48.8731C49.1075 13.5845 49.5011 12.9817 50.0537 12.5742C50.6063 12.1611 51.2427 11.9545 51.9628 11.9545C52.1414 11.9545 52.334 11.9657 52.5405 11.988C52.7471 12.0104 52.9285 12.0411 53.0848 12.0801V15.2452C52.9173 15.195 52.6857 15.1503 52.3898 15.1112C52.094 15.0722 51.8232 15.0526 51.5776 15.0526C51.0529 15.0526 50.584 15.1671 50.1709 15.3959C49.7634 15.6192 49.4396 15.9318 49.1996 16.3337C48.9652 16.7356 48.8479 17.199 48.8479 17.7237V25H45.281ZM55.1648 25V12.1388H58.7318V25H55.1648ZM56.9566 10.4809C56.4263 10.4809 55.9714 10.305 55.5918 9.95335C55.2178 9.59609 55.0308 9.16906 55.0308 8.67225C55.0308 8.18102 55.2178 7.75957 55.5918 7.40789C55.9714 7.05064 56.4263 6.87201 56.9566 6.87201C57.4869 6.87201 57.9391 7.05064 58.3131 7.40789C58.6927 7.75957 58.8825 8.18102 58.8825 8.67225C58.8825 9.16906 58.6927 9.59609 58.3131 9.95335C57.9391 10.305 57.4869 10.4809 56.9566 10.4809ZM64.8058 12.1388L67.167 16.6352L69.5869 12.1388H73.246L69.5199 18.5694L73.3464 25H69.7041L67.167 20.5538L64.6718 25H60.9876L64.8058 18.5694L61.1216 12.1388H64.8058ZM88.1341 12.1388V14.8182H80.3889V12.1388H88.1341ZM82.1473 9.05742H85.7142V21.0478C85.7142 21.3772 85.7645 21.634 85.865 21.8182C85.9654 21.9968 86.105 22.1224 86.2836 22.195C86.4678 22.2675 86.68 22.3038 86.92 22.3038C87.0875 22.3038 87.2549 22.2899 87.4224 22.262C87.5898 22.2285 87.7182 22.2033 87.8076 22.1866L88.3686 24.8409C88.1899 24.8967 87.9387 24.9609 87.615 25.0335C87.2912 25.1116 86.8977 25.1591 86.4343 25.1758C85.5747 25.2093 84.8211 25.0949 84.1736 24.8325C83.5316 24.5702 83.032 24.1627 82.6748 23.61C82.3175 23.0574 82.1417 22.3596 82.1473 21.5167V9.05742ZM96.4165 25.2512C95.0936 25.2512 93.9548 24.9833 93.0003 24.4474C92.0513 23.9059 91.3201 23.1411 90.8065 22.1531C90.2929 21.1595 90.0362 19.9844 90.0362 18.628C90.0362 17.305 90.2929 16.1439 90.8065 15.1447C91.3201 14.1455 92.0429 13.3668 92.9752 12.8086C93.913 12.2504 95.0126 11.9713 96.2742 11.9713C97.1227 11.9713 97.9126 12.1081 98.6438 12.3816C99.3807 12.6495 100.023 13.0542 100.57 13.5957C101.122 14.1372 101.552 14.8182 101.859 15.6388C102.166 16.4537 102.32 17.4083 102.32 18.5024V19.4821H91.4596V17.2715H98.962C98.962 16.758 98.8504 16.303 98.6271 15.9067C98.4038 15.5104 98.094 15.2006 97.6976 14.9773C97.3069 14.7484 96.852 14.634 96.3328 14.634C95.7913 14.634 95.3113 14.7596 94.8926 15.0108C94.4795 15.2564 94.1558 15.5885 93.9213 16.0072C93.6869 16.4203 93.5669 16.8808 93.5613 17.3888V19.4904C93.5613 20.1268 93.6785 20.6766 93.913 21.14C94.153 21.6033 94.4907 21.9605 94.9261 22.2117C95.3615 22.4629 95.8779 22.5885 96.4752 22.5885C96.8715 22.5885 97.2343 22.5327 97.5637 22.4211C97.893 22.3094 98.1749 22.1419 98.4094 21.9187C98.6438 21.6954 98.8224 21.4218 98.9453 21.0981L102.244 21.3158C102.077 22.1085 101.734 22.8006 101.214 23.3923C100.701 23.9785 100.037 24.4362 99.2216 24.7656C98.4122 25.0893 97.4772 25.2512 96.4165 25.2512ZM104.883 25V12.1388H108.283V14.4079H108.433C108.701 13.6543 109.148 13.0598 109.773 12.6244C110.398 12.189 111.146 11.9713 112.017 11.9713C112.899 11.9713 113.65 12.1918 114.27 12.6328C114.889 13.0682 115.302 13.6599 115.509 14.4079H115.643C115.905 13.6711 116.38 13.0821 117.066 12.6411C117.758 12.1946 118.576 11.9713 119.52 11.9713C120.72 11.9713 121.694 12.3537 122.442 13.1184C123.195 13.8776 123.572 14.9549 123.572 16.3505V25H120.014V17.0538C120.014 16.3393 119.824 15.8034 119.444 15.4462C119.065 15.0889 118.59 14.9103 118.021 14.9103C117.373 14.9103 116.868 15.1168 116.505 15.5299C116.142 15.9374 115.961 16.4761 115.961 17.1459V25H112.503V16.9785C112.503 16.3477 112.321 15.8453 111.959 15.4713C111.601 15.0973 111.13 14.9103 110.543 14.9103C110.147 14.9103 109.79 15.0108 109.472 15.2117C109.159 15.4071 108.911 15.6834 108.726 16.0407C108.542 16.3923 108.45 16.8054 108.45 17.2799V25H104.883ZM126.626 29.823V12.1388H130.142V14.299H130.301C130.458 13.953 130.684 13.6013 130.98 13.244C131.281 12.8812 131.672 12.5797 132.152 12.3397C132.638 12.0941 133.24 11.9713 133.96 11.9713C134.898 11.9713 135.764 12.2169 136.556 12.7081C137.349 13.1938 137.982 13.9278 138.457 14.9103C138.931 15.8872 139.169 17.1124 139.169 18.5861C139.169 20.0207 138.937 21.2321 138.474 22.2201C138.016 23.2026 137.391 23.9478 136.598 24.4557C135.811 24.9581 134.929 25.2093 133.952 25.2093C133.26 25.2093 132.671 25.0949 132.185 24.866C131.705 24.6372 131.312 24.3497 131.005 24.0036C130.698 23.6519 130.463 23.2974 130.301 22.9402H130.193V29.823H126.626ZM130.117 18.5694C130.117 19.3341 130.223 20.0012 130.435 20.5706C130.647 21.14 130.955 21.5837 131.356 21.9019C131.758 22.2145 132.247 22.3708 132.822 22.3708C133.402 22.3708 133.894 22.2117 134.295 21.8935C134.697 21.5698 135.002 21.1232 135.208 20.5538C135.42 19.9789 135.526 19.3174 135.526 18.5694C135.526 17.827 135.423 17.1738 135.216 16.61C135.01 16.0463 134.706 15.6053 134.304 15.2871C133.902 14.9689 133.408 14.8098 132.822 14.8098C132.241 14.8098 131.75 14.9633 131.348 15.2703C130.952 15.5774 130.647 16.0128 130.435 16.5766C130.223 17.1404 130.117 17.8046 130.117 18.5694ZM145.349 7.85167V25H141.782V7.85167H145.349ZM152.11 25.2428C151.289 25.2428 150.558 25.1005 149.916 24.8158C149.274 24.5255 148.766 24.0985 148.392 23.5347C148.024 22.9653 147.84 22.2564 147.84 21.4079C147.84 20.6934 147.971 20.0933 148.233 19.6077C148.496 19.122 148.853 18.7313 149.305 18.4354C149.757 18.1396 150.271 17.9163 150.846 17.7656C151.426 17.6148 152.035 17.5088 152.671 17.4474C153.419 17.3692 154.022 17.2967 154.48 17.2297C154.937 17.1571 155.269 17.051 155.476 16.9115C155.683 16.7719 155.786 16.5654 155.786 16.2919V16.2416C155.786 15.7113 155.618 15.301 155.283 15.0108C154.954 14.7205 154.485 14.5754 153.877 14.5754C153.235 14.5754 152.724 14.7177 152.344 15.0024C151.965 15.2815 151.714 15.6332 151.591 16.0574L148.292 15.7895C148.459 15.008 148.789 14.3325 149.28 13.7632C149.771 13.1882 150.405 12.7472 151.181 12.4402C151.962 12.1276 152.866 11.9713 153.893 11.9713C154.608 11.9713 155.292 12.055 155.945 12.2225C156.604 12.39 157.187 12.6495 157.695 13.0012C158.208 13.3529 158.613 13.805 158.909 14.3577C159.205 14.9047 159.353 15.5606 159.353 16.3254V25H155.97V23.2165H155.87C155.663 23.6184 155.387 23.9729 155.041 24.2799C154.695 24.5813 154.279 24.8186 153.793 24.9916C153.307 25.1591 152.746 25.2428 152.11 25.2428ZM153.132 22.7811C153.656 22.7811 154.12 22.6778 154.521 22.4713C154.923 22.2592 155.239 21.9745 155.468 21.6172C155.697 21.26 155.811 20.8553 155.811 20.4031V19.0383C155.699 19.1108 155.546 19.1778 155.35 19.2392C155.161 19.2951 154.946 19.3481 154.706 19.3983C154.466 19.443 154.226 19.4848 153.986 19.5239C153.746 19.5574 153.528 19.5881 153.332 19.616C152.914 19.6774 152.548 19.7751 152.236 19.9091C151.923 20.0431 151.68 20.2245 151.507 20.4533C151.334 20.6766 151.248 20.9557 151.248 21.2907C151.248 21.7763 151.423 22.1475 151.775 22.4043C152.132 22.6555 152.584 22.7811 153.132 22.7811ZM169.197 12.1388V14.8182H161.452V12.1388H169.197ZM163.21 9.05742H166.777V21.0478C166.777 21.3772 166.827 21.634 166.928 21.8182C167.028 21.9968 167.168 22.1224 167.346 22.195C167.531 22.2675 167.743 22.3038 167.983 22.3038C168.15 22.3038 168.318 22.2899 168.485 22.262C168.653 22.2285 168.781 22.2033 168.87 22.1866L169.431 24.8409C169.253 24.8967 169.001 24.9609 168.678 25.0335C168.354 25.1116 167.96 25.1591 167.497 25.1758C166.637 25.2093 165.884 25.0949 165.236 24.8325C164.594 24.5702 164.095 24.1627 163.738 23.61C163.38 23.0574 163.204 22.3596 163.21 21.5167V9.05742ZM177.479 25.2512C176.156 25.2512 175.018 24.9833 174.063 24.4474C173.114 23.9059 172.383 23.1411 171.869 22.1531C171.356 21.1595 171.099 19.9844 171.099 18.628C171.099 17.305 171.356 16.1439 171.869 15.1447C172.383 14.1455 173.106 13.3668 174.038 12.8086C174.976 12.2504 176.075 11.9713 177.337 11.9713C178.185 11.9713 178.975 12.1081 179.707 12.3816C180.443 12.6495 181.085 13.0542 181.632 13.5957C182.185 14.1372 182.615 14.8182 182.922 15.6388C183.229 16.4537 183.382 17.4083 183.382 18.5024V19.4821H172.522V17.2715H180.025C180.025 16.758 179.913 16.303 179.69 15.9067C179.467 15.5104 179.157 15.2006 178.76 14.9773C178.37 14.7484 177.915 14.634 177.396 14.634C176.854 14.634 176.374 14.7596 175.955 15.0108C175.542 15.2564 175.219 15.5885 174.984 16.0072C174.75 16.4203 174.63 16.8808 174.624 17.3888V19.4904C174.624 20.1268 174.741 20.6766 174.976 21.14C175.216 21.6033 175.553 21.9605 175.989 22.2117C176.424 22.4629 176.941 22.5885 177.538 22.5885C177.934 22.5885 178.297 22.5327 178.626 22.4211C178.956 22.3094 179.238 22.1419 179.472 21.9187C179.707 21.6954 179.885 21.4218 180.008 21.0981L183.307 21.3158C183.14 22.1085 182.796 22.8006 182.277 23.3923C181.764 23.9785 181.099 24.4362 180.284 24.7656C179.475 25.0893 178.54 25.2512 177.479 25.2512ZM196.647 15.8062L193.381 16.0072C193.326 15.7281 193.206 15.4769 193.021 15.2536C192.837 15.0247 192.594 14.8433 192.293 14.7093C191.997 14.5698 191.643 14.5 191.229 14.5C190.677 14.5 190.211 14.6172 189.831 14.8517C189.452 15.0805 189.262 15.3876 189.262 15.7727C189.262 16.0797 189.385 16.3393 189.63 16.5514C189.876 16.7636 190.297 16.9338 190.895 17.0622L193.222 17.5311C194.473 17.7879 195.405 18.201 196.019 18.7703C196.633 19.3397 196.94 20.0877 196.94 21.0144C196.94 21.8573 196.692 22.5969 196.195 23.2333C195.704 23.8696 195.028 24.3664 194.168 24.7237C193.314 25.0754 192.329 25.2512 191.213 25.2512C189.51 25.2512 188.154 24.8967 187.143 24.1878C186.139 23.4733 185.55 22.502 185.377 21.2739L188.885 21.0897C188.991 21.6089 189.248 22.0052 189.655 22.2787C190.063 22.5467 190.585 22.6806 191.221 22.6806C191.846 22.6806 192.349 22.5606 192.728 22.3206C193.113 22.075 193.309 21.7596 193.314 21.3744C193.309 21.0506 193.172 20.7855 192.904 20.5789C192.636 20.3668 192.223 20.2049 191.665 20.0933L189.438 19.6495C188.182 19.3983 187.247 18.9629 186.633 18.3433C186.024 17.7237 185.72 16.9338 185.72 15.9737C185.72 15.1475 185.943 14.4358 186.39 13.8385C186.842 13.2412 187.475 12.7807 188.29 12.4569C189.111 12.1332 190.071 11.9713 191.171 11.9713C192.795 11.9713 194.074 12.3146 195.006 13.0012C195.944 13.6878 196.491 14.6228 196.647 15.8062Z" fill="#170F49"/>
</svg>
