<svg width="228" height="29" viewBox="0 0 228 29" fill="none" xmlns="http://www.w3.org/2000/svg">
<path d="M1.10567e-05 1.05469H4.83666L11.3139 16.8643H11.5696L18.0469 1.05469H22.8835V22.8729H19.0909V7.88352H18.8885L12.8587 22.809H10.0249L3.99504 7.85156H3.79263V22.8729H1.10567e-05V1.05469ZM37.4467 15.9908V6.50923H41.3033V22.8729H37.5639V19.9645H37.3935C37.0242 20.8807 36.4169 21.63 35.5717 22.2124C34.7337 22.7947 33.7003 23.0859 32.4716 23.0859C31.3992 23.0859 30.451 22.848 29.6271 22.3722C28.8104 21.8892 28.1712 21.1896 27.7095 20.2734C27.2479 19.3501 27.0171 18.2351 27.0171 16.9283V6.50923H30.8736V16.3317C30.8736 17.3686 31.1577 18.1925 31.7259 18.8033C32.294 19.4141 33.0398 19.7195 33.9631 19.7195C34.5313 19.7195 35.0817 19.581 35.6144 19.304C36.147 19.027 36.5838 18.6151 36.9247 18.0682C37.2727 17.5142 37.4467 16.8217 37.4467 15.9908ZM49.1255 1.05469V22.8729H45.269V1.05469H49.1255ZM61.2624 6.50923V9.49219H51.8555V6.50923H61.2624ZM54.1779 2.58878H58.0345V17.951C58.0345 18.4695 58.1126 18.8672 58.2688 19.1442C58.4322 19.4141 58.6453 19.5987 58.908 19.6982C59.1708 19.7976 59.462 19.8473 59.7816 19.8473C60.0231 19.8473 60.2433 19.8295 60.4421 19.794C60.6481 19.7585 60.8043 19.7266 60.9109 19.6982L61.5607 22.7131C61.3548 22.7841 61.06 22.8622 60.6765 22.9474C60.3001 23.0327 59.8384 23.0824 59.2916 23.0966C58.3257 23.125 57.4556 22.9794 56.6815 22.6598C55.9073 22.3331 55.293 21.8288 54.8384 21.147C54.391 20.4652 54.1708 19.6129 54.1779 18.5902V2.58878ZM64.4878 22.8729V6.50923H68.3443V22.8729H64.4878ZM66.4267 4.18679C65.8159 4.18679 65.2903 3.98438 64.85 3.57955C64.4096 3.16761 64.1895 2.67401 64.1895 2.09872C64.1895 1.51634 64.4096 1.02273 64.85 0.617898C65.2903 0.205967 65.8159 1.43051e-06 66.4267 1.43051e-06C67.0446 1.43051e-06 67.5701 0.205967 68.0034 0.617898C68.4437 1.02273 68.6639 1.51634 68.6639 2.09872C68.6639 2.67401 68.4437 3.16761 68.0034 3.57955C67.5701 3.98438 67.0446 4.18679 66.4267 4.18679ZM82.2283 12.1982V15.3729H72.4059V12.1982H82.2283ZM99.2179 10.8345L95.7022 11.218C95.6028 10.8629 95.4288 10.5291 95.1802 10.2166C94.9388 9.90412 94.612 9.65199 94.2001 9.46023C93.7882 9.26847 93.2839 9.17259 92.6873 9.17259C91.8848 9.17259 91.2101 9.34659 90.6632 9.6946C90.1234 10.0426 89.8571 10.4936 89.8642 11.0476C89.8571 11.5234 90.0311 11.9105 90.3862 12.2088C90.7484 12.5071 91.345 12.7521 92.176 12.9439L94.9672 13.5405C96.5155 13.8743 97.666 14.4034 98.4189 15.1278C99.1788 15.8523 99.5623 16.8004 99.5694 17.9723C99.5623 19.0021 99.2605 19.9112 98.6639 20.6996C98.0744 21.4808 97.2541 22.0916 96.203 22.532C95.1518 22.9723 93.9444 23.1925 92.5808 23.1925C90.578 23.1925 88.9657 22.7734 87.7442 21.9354C86.5226 21.0902 85.7946 19.9148 85.5602 18.4091L89.3209 18.0469C89.4913 18.7855 89.8535 19.343 90.4075 19.7195C90.9615 20.0959 91.6824 20.2841 92.5701 20.2841C93.4863 20.2841 94.2214 20.0959 94.7754 19.7195C95.3365 19.343 95.617 18.8778 95.617 18.3239C95.617 17.8551 95.4359 17.468 95.0737 17.1626C94.7186 16.8572 94.1646 16.6229 93.4118 16.4595L90.6206 15.8736C89.051 15.5469 87.8897 14.9965 87.1369 14.2223C86.3841 13.4411 86.0112 12.4538 86.0183 11.2607C86.0112 10.2521 86.2846 9.37855 86.8386 8.63992C87.3997 7.89418 88.1774 7.31889 89.1717 6.91406C90.1731 6.50213 91.3272 6.29617 92.6341 6.29617C94.5517 6.29617 96.0609 6.70455 97.1618 7.52131C98.2697 8.33807 98.9551 9.44247 99.2179 10.8345ZM110.921 6.50923V9.49219H101.514V6.50923H110.921ZM103.836 2.58878H107.693V17.951C107.693 18.4695 107.771 18.8672 107.927 19.1442C108.09 19.4141 108.303 19.5987 108.566 19.6982C108.829 19.7976 109.12 19.8473 109.44 19.8473C109.681 19.8473 109.901 19.8295 110.1 19.794C110.306 19.7585 110.463 19.7266 110.569 19.6982L111.219 22.7131C111.013 22.7841 110.718 22.8622 110.335 22.9474C109.958 23.0327 109.497 23.0824 108.95 23.0966C107.984 23.125 107.114 22.9794 106.34 22.6598C105.566 22.3331 104.951 21.8288 104.497 21.147C104.049 20.4652 103.829 19.6129 103.836 18.5902V2.58878ZM121.214 23.1925C119.574 23.1925 118.157 22.8516 116.964 22.1697C115.778 21.4808 114.865 20.5078 114.226 19.2507C113.587 17.9865 113.267 16.4986 113.267 14.7869C113.267 13.1037 113.587 11.6264 114.226 10.3551C114.872 9.07671 115.774 8.08239 116.932 7.37216C118.089 6.65483 119.45 6.29617 121.012 6.29617C122.021 6.29617 122.972 6.45952 123.867 6.78622C124.769 7.10583 125.565 7.60298 126.254 8.2777C126.95 8.95242 127.496 9.81179 127.894 10.8558C128.292 11.8928 128.491 13.1286 128.491 14.5632V15.7457H115.078V13.1463H124.794C124.787 12.4077 124.627 11.7507 124.315 11.1754C124.002 10.593 123.565 10.1349 123.004 9.80114C122.45 9.46733 121.804 9.30043 121.065 9.30043C120.277 9.30043 119.585 9.49219 118.988 9.87571C118.391 10.2521 117.926 10.7493 117.592 11.3672C117.266 11.978 117.099 12.6491 117.092 13.3807V15.6499C117.092 16.6016 117.266 17.4183 117.614 18.1001C117.962 18.7749 118.448 19.2933 119.073 19.6555C119.698 20.0107 120.43 20.1882 121.268 20.1882C121.829 20.1882 122.337 20.1101 122.791 19.9538C123.246 19.7905 123.64 19.5526 123.974 19.2401C124.308 18.9276 124.56 18.5405 124.73 18.0788L128.331 18.4837C128.104 19.4354 127.67 20.2663 127.031 20.9766C126.399 21.6797 125.589 22.2266 124.602 22.6172C123.615 23.0007 122.486 23.1925 121.214 23.1925ZM131.753 29.0092V6.50923H135.546V9.2152H135.77C135.969 8.81747 136.249 8.39489 136.611 7.94744C136.974 7.4929 137.464 7.10583 138.082 6.78622C138.699 6.45952 139.488 6.29617 140.447 6.29617C141.711 6.29617 142.851 6.61932 143.866 7.26563C144.889 7.90483 145.699 8.85298 146.295 10.1101C146.899 11.3601 147.201 12.8942 147.201 14.7124C147.201 16.5092 146.906 18.0362 146.317 19.2933C145.727 20.5504 144.925 21.5092 143.909 22.1697C142.893 22.8303 141.743 23.1605 140.457 23.1605C139.52 23.1605 138.742 23.0043 138.124 22.6918C137.506 22.3793 137.009 22.0028 136.633 21.5625C136.263 21.1151 135.976 20.6925 135.77 20.2947H135.61V29.0092H131.753ZM135.535 14.6911C135.535 15.7493 135.684 16.6761 135.983 17.4716C136.288 18.267 136.725 18.8885 137.293 19.3359C137.868 19.7763 138.564 19.9965 139.381 19.9965C140.233 19.9965 140.947 19.7692 141.523 19.3146C142.098 18.853 142.531 18.2244 142.822 17.429C143.121 16.6264 143.27 15.7138 143.27 14.6911C143.27 13.6754 143.124 12.7734 142.833 11.9851C142.542 11.1967 142.108 10.5788 141.533 10.1314C140.958 9.68395 140.241 9.46023 139.381 9.46023C138.557 9.46023 137.858 9.67685 137.283 10.1101C136.707 10.5433 136.27 11.1506 135.972 11.9318C135.681 12.7131 135.535 13.6328 135.535 14.6911ZM158.115 22.8729V1.05469H172.093V4.3679H162.068V10.2912H171.134V13.6044H162.068V22.8729H158.115ZM181.46 23.1925C179.862 23.1925 178.477 22.8409 177.305 22.1378C176.133 21.4347 175.224 20.451 174.577 19.1868C173.938 17.9226 173.619 16.4453 173.619 14.755C173.619 13.0646 173.938 11.5838 174.577 10.3125C175.224 9.04119 176.133 8.05398 177.305 7.35085C178.477 6.64773 179.862 6.29617 181.46 6.29617C183.058 6.29617 184.442 6.64773 185.614 7.35085C186.786 8.05398 187.692 9.04119 188.331 10.3125C188.977 11.5838 189.3 13.0646 189.3 14.755C189.3 16.4453 188.977 17.9226 188.331 19.1868C187.692 20.451 186.786 21.4347 185.614 22.1378C184.442 22.8409 183.058 23.1925 181.46 23.1925ZM181.481 20.103C182.347 20.103 183.072 19.8651 183.654 19.3892C184.237 18.9063 184.67 18.2599 184.954 17.4503C185.245 16.6406 185.391 15.7386 185.391 14.7443C185.391 13.7429 185.245 12.8374 184.954 12.0277C184.67 11.2109 184.237 10.5611 183.654 10.0781C183.072 9.59517 182.347 9.35369 181.481 9.35369C180.593 9.35369 179.854 9.59517 179.265 10.0781C178.683 10.5611 178.246 11.2109 177.955 12.0277C177.67 12.8374 177.528 13.7429 177.528 14.7443C177.528 15.7386 177.67 16.6406 177.955 17.4503C178.246 18.2599 178.683 18.9063 179.265 19.3892C179.854 19.8651 180.593 20.103 181.481 20.103ZM192.574 22.8729V6.50923H196.313V9.23651H196.483C196.782 8.29191 197.293 7.56392 198.018 7.05256C198.749 6.53409 199.584 6.27486 200.521 6.27486C200.734 6.27486 200.972 6.28551 201.235 6.30682C201.505 6.32102 201.729 6.34588 201.906 6.38139V9.92898C201.743 9.87216 201.483 9.82244 201.128 9.77983C200.78 9.73012 200.443 9.70526 200.116 9.70526C199.413 9.70526 198.781 9.85796 198.22 10.1634C197.666 10.4616 197.229 10.8771 196.91 11.4098C196.59 11.9425 196.43 12.5568 196.43 13.2528V22.8729H192.574ZM204.468 22.8729V6.50923H208.154V9.28977H208.346C208.687 8.35227 209.252 7.62074 210.04 7.09517C210.828 6.5625 211.769 6.29617 212.863 6.29617C213.971 6.29617 214.905 6.56605 215.665 7.10583C216.432 7.6385 216.972 8.36648 217.284 9.28977H217.455C217.817 8.38068 218.428 7.65625 219.287 7.11648C220.154 6.5696 221.18 6.29617 222.366 6.29617C223.872 6.29617 225.1 6.77202 226.052 7.72372C227.004 8.67543 227.48 10.0639 227.48 11.8892V22.8729H223.612V12.4858C223.612 11.4702 223.343 10.728 222.803 10.2592C222.263 9.78338 221.602 9.54546 220.821 9.54546C219.891 9.54546 219.163 9.83665 218.637 10.419C218.119 10.9943 217.86 11.7436 217.86 12.6669V22.8729H214.078V12.326C214.078 11.4808 213.822 10.8061 213.311 10.3018C212.806 9.79759 212.146 9.54546 211.329 9.54546C210.775 9.54546 210.271 9.6875 209.816 9.97159C209.362 10.2486 208.999 10.6428 208.73 11.1541C208.46 11.6584 208.325 12.2479 208.325 12.9226V22.8729H204.468Z" fill="#170F49"/>
</svg>
